<?xml version="1.0" encoding="utf-8"?>
<!-- Generator: Adobe Illustrator 22.0.1, SVG Export Plug-In . SVG Version: 6.00 Build 0)  -->
<svg version="1.1" id="Layer_1" xmlns="http://www.w3.org/2000/svg" xmlns:xlink="http://www.w3.org/1999/xlink" x="0px" y="0px"
	 viewBox="0 0 100 100" style="enable-background:new 0 0 100 100;" xml:space="preserve">
<style type="text/css">
	.st0{fill:#FFFFFF;}
</style>
<g>
	<path class="st0" d="M49.8,13.2c-20.3,0-36.9,16.5-36.9,36.9C12.9,70.5,29.4,87,49.8,87c20.3,0,36.9-16.5,36.9-36.9
		C86.7,29.7,70.1,13.2,49.8,13.2z M49.8,85.7c-19.7,0-35.6-16-35.6-35.6c0-19.7,16-35.6,35.6-35.6c19.7,0,35.6,16,35.6,35.6
		C85.4,69.8,69.4,85.7,49.8,85.7z"/>
</g>
<g>
	<path class="st0" d="M66.1,54.5l-16.3,0l-16.3,0c-0.3,0-0.6,0.3-0.6,0.6s0.3,0.6,0.6,0.6h0.4v0h15.9h15.9v0h0.4
		c0.3,0,0.6-0.3,0.6-0.6S66.4,54.5,66.1,54.5z"/>
	<path class="st0" d="M66.1,44.5l-16.3,0l-16.3,0c-0.3,0-0.6,0.3-0.6,0.6s0.3,0.6,0.6,0.6h0.4v0h15.9h15.9v0h0.4
		c0.3,0,0.6-0.3,0.6-0.6S66.4,44.5,66.1,44.5z"/>
</g>
</svg>
