<svg xmlns="http://www.w3.org/2000/svg" xmlns:xlink="http://www.w3.org/1999/xlink" version="1.1" x="0px" y="0px" viewBox="0 0 100 100" enable-background="new 0 0 100 100" xml:space="preserve"><path fill="#ffffff" d="M49.8,13.2c-20.3,0-36.9,16.5-36.9,36.9S29.4,87,49.8,87c20.3,0,36.9-16.5,36.9-36.9S70.1,13.2,49.8,13.2z M49.8,85.7  c-19.7,0-35.6-16-35.6-35.6c0-19.7,16-35.6,35.6-35.6c19.7,0,35.6,16,35.6,35.6C85.4,69.8,69.4,85.7,49.8,85.7z M63.9,47.2  c0.2,0.2,0.2,0.6,0,0.9c-0.1,0.1-0.3,0.2-0.4,0.2c-0.2,0-0.3-0.1-0.4-0.2L50.4,35.5v32.2c0,0.3-0.3,0.6-0.6,0.6s-0.6-0.3-0.6-0.6  V35.5L36.6,48c-0.2,0.2-0.6,0.2-0.9,0c-0.2-0.2-0.2-0.6,0-0.9l13.6-13.6c0.1-0.1,0.1-0.1,0.2-0.1c0.2-0.1,0.3-0.1,0.5,0  c0.1,0,0.1,0.1,0.2,0.1L63.9,47.2z"></path></svg>